<mxfile host="Electron" modified="2023-09-15T20:34:39.640Z" agent="Mozilla/5.0 (Windows NT 10.0; Win64; x64) AppleWebKit/537.36 (KHTML, like Gecko) draw.io/21.6.5 Chrome/114.0.5735.243 Electron/25.3.1 Safari/537.36" etag="-xZ-DcyXKtzKZ7feeJ68" version="21.6.5" type="device">
  <diagram name="Page-1" id="RgxmIXzVf6fgX4t4gmj1">
    <mxGraphModel dx="780" dy="496" grid="1" gridSize="10" guides="1" tooltips="1" connect="1" arrows="1" fold="1" page="1" pageScale="1" pageWidth="850" pageHeight="1100" math="0" shadow="0">
      <root>
        <mxCell id="0" />
        <mxCell id="1" parent="0" />
        <mxCell id="9TwhqjXEH5kSJoeeJFSu-3" value="" style="edgeStyle=orthogonalEdgeStyle;rounded=0;orthogonalLoop=1;jettySize=auto;html=1;" edge="1" parent="1" target="9TwhqjXEH5kSJoeeJFSu-2">
          <mxGeometry relative="1" as="geometry">
            <mxPoint x="280" y="160" as="sourcePoint" />
          </mxGeometry>
        </mxCell>
        <mxCell id="9TwhqjXEH5kSJoeeJFSu-5" value="" style="edgeStyle=orthogonalEdgeStyle;rounded=0;orthogonalLoop=1;jettySize=auto;html=1;" edge="1" parent="1" source="9TwhqjXEH5kSJoeeJFSu-2" target="9TwhqjXEH5kSJoeeJFSu-4">
          <mxGeometry relative="1" as="geometry" />
        </mxCell>
        <mxCell id="9TwhqjXEH5kSJoeeJFSu-2" value="dictionary" style="whiteSpace=wrap;html=1;rounded=1;" vertex="1" parent="1">
          <mxGeometry x="365" y="130" width="120" height="60" as="geometry" />
        </mxCell>
        <mxCell id="9TwhqjXEH5kSJoeeJFSu-4" value="serilization" style="whiteSpace=wrap;html=1;rounded=1;" vertex="1" parent="1">
          <mxGeometry x="565" y="130" width="120" height="60" as="geometry" />
        </mxCell>
        <mxCell id="9TwhqjXEH5kSJoeeJFSu-6" value="KAFKA" style="ellipse;whiteSpace=wrap;html=1;aspect=fixed;" vertex="1" parent="1">
          <mxGeometry x="370" y="250" width="140" height="140" as="geometry" />
        </mxCell>
        <mxCell id="9TwhqjXEH5kSJoeeJFSu-7" value="object" style="rounded=1;whiteSpace=wrap;html=1;" vertex="1" parent="1">
          <mxGeometry x="160" y="410" width="120" height="60" as="geometry" />
        </mxCell>
        <mxCell id="9TwhqjXEH5kSJoeeJFSu-16" value="" style="edgeStyle=orthogonalEdgeStyle;rounded=0;orthogonalLoop=1;jettySize=auto;html=1;" edge="1" parent="1" source="9TwhqjXEH5kSJoeeJFSu-8" target="9TwhqjXEH5kSJoeeJFSu-7">
          <mxGeometry relative="1" as="geometry" />
        </mxCell>
        <mxCell id="9TwhqjXEH5kSJoeeJFSu-8" value="dictionary" style="rounded=1;whiteSpace=wrap;html=1;" vertex="1" parent="1">
          <mxGeometry x="360" y="410" width="120" height="60" as="geometry" />
        </mxCell>
        <mxCell id="9TwhqjXEH5kSJoeeJFSu-17" value="" style="edgeStyle=orthogonalEdgeStyle;rounded=0;orthogonalLoop=1;jettySize=auto;html=1;" edge="1" parent="1" source="9TwhqjXEH5kSJoeeJFSu-10" target="9TwhqjXEH5kSJoeeJFSu-8">
          <mxGeometry relative="1" as="geometry" />
        </mxCell>
        <mxCell id="9TwhqjXEH5kSJoeeJFSu-10" value="Deserilization" style="rounded=1;whiteSpace=wrap;html=1;" vertex="1" parent="1">
          <mxGeometry x="560" y="410" width="120" height="60" as="geometry" />
        </mxCell>
        <mxCell id="9TwhqjXEH5kSJoeeJFSu-15" value="" style="endArrow=classic;html=1;rounded=0;entryX=0;entryY=0.5;entryDx=0;entryDy=0;" edge="1" parent="1" target="9TwhqjXEH5kSJoeeJFSu-6">
          <mxGeometry width="50" height="50" relative="1" as="geometry">
            <mxPoint x="685" y="160" as="sourcePoint" />
            <mxPoint x="240" y="220" as="targetPoint" />
            <Array as="points">
              <mxPoint x="720" y="160" />
              <mxPoint x="720" y="210" />
              <mxPoint x="350" y="220" />
              <mxPoint x="350" y="320" />
            </Array>
          </mxGeometry>
        </mxCell>
        <mxCell id="9TwhqjXEH5kSJoeeJFSu-18" value="" style="endArrow=classic;html=1;rounded=0;entryX=1;entryY=0.5;entryDx=0;entryDy=0;" edge="1" parent="1" target="9TwhqjXEH5kSJoeeJFSu-10">
          <mxGeometry width="50" height="50" relative="1" as="geometry">
            <mxPoint x="510" y="320" as="sourcePoint" />
            <mxPoint x="570" y="270" as="targetPoint" />
            <Array as="points">
              <mxPoint x="720" y="320" />
              <mxPoint x="720" y="440" />
            </Array>
          </mxGeometry>
        </mxCell>
        <mxCell id="9TwhqjXEH5kSJoeeJFSu-19" value="object" style="rounded=1;whiteSpace=wrap;html=1;strokeWidth=1;" vertex="1" parent="1">
          <mxGeometry x="160" y="130" width="120" height="60" as="geometry" />
        </mxCell>
        <mxCell id="9TwhqjXEH5kSJoeeJFSu-20" value="" style="endArrow=none;dashed=1;html=1;dashPattern=1 3;strokeWidth=2;rounded=0;" edge="1" parent="1">
          <mxGeometry width="50" height="50" relative="1" as="geometry">
            <mxPoint x="40" y="320" as="sourcePoint" />
            <mxPoint x="801.3333740234375" y="320" as="targetPoint" />
          </mxGeometry>
        </mxCell>
        <mxCell id="9TwhqjXEH5kSJoeeJFSu-21" value="&lt;font style=&quot;font-size: 20px;&quot;&gt;Production&lt;/font&gt;" style="text;html=1;strokeColor=none;fillColor=none;align=center;verticalAlign=middle;whiteSpace=wrap;rounded=0;" vertex="1" parent="1">
          <mxGeometry x="310" y="40" width="200" height="30" as="geometry" />
        </mxCell>
        <mxCell id="9TwhqjXEH5kSJoeeJFSu-23" value="&lt;font style=&quot;font-size: 22px;&quot;&gt;consumer&lt;/font&gt;" style="text;html=1;strokeColor=none;fillColor=none;align=center;verticalAlign=middle;whiteSpace=wrap;rounded=0;" vertex="1" parent="1">
          <mxGeometry x="390" y="510" width="60" height="30" as="geometry" />
        </mxCell>
      </root>
    </mxGraphModel>
  </diagram>
</mxfile>
